<?xml version="1.0" standalone="yes"?>
<svg xmlns="http://www.w3.org/2000/svg" viewBox="0 0 120 34">
  <g fill="none" fill-rule="evenodd">
    <path d="M32.326 8.339V4.158H16.142l-4.083 4.181zm0 8.267v-4.181H8.114l-4.085 4.181zm0 8.329 4.05-4.182H0v4.182zM16.142 29.13h16.183v4.181H16.142z" fill="#0D7BFF" fill-rule="nonzero"/>
    <path d="M84.902 9.701a12.007 12.007 0 0 0-10.97 0 9.736 9.736 0 0 0-3.828 3.7 11.121 11.121 0 0 0 0 10.723 9.857 9.857 0 0 0 3.826 3.718 11.855 11.855 0 0 0 10.974 0 9.902 9.902 0 0 0 3.807-3.717 11.121 11.121 0 0 0 0-10.723 9.758 9.758 0 0 0-3.808-3.7zm.897 9.061a7.184 7.184 0 0 1-.826 3.485 5.917 5.917 0 0 1-2.267 2.337 6.872 6.872 0 0 1-6.56 0 6.05 6.05 0 0 1-2.287-2.34 7.61 7.61 0 0 1 0-6.963 5.926 5.926 0 0 1 2.285-2.32 7.01 7.01 0 0 1 6.565 0 5.81 5.81 0 0 1 2.264 2.318 7.18 7.18 0 0 1 .826 3.481v.002zM98.926 8.257l-.003-4.08h5.68V0H97.41c-1.496.002-2.709 1.204-2.71 2.688v5.569h4.043l-4.044 4.18v16.477h4.223V12.438h1.63l4.07-4.181h-5.697zm14.094 4.181h2.785l4.049-4.181h-6.834V0h-4.225v8.257h4.05l-4.05 4.187v13.781c.002 1.484 1.215 2.687 2.712 2.689h6.302v-4.095h-4.79V12.438zm-51.389 5.531a30.933 30.933 0 0 0-3.92-.884c-1.19-.22-2.122-.42-2.773-.59a3.989 3.989 0 0 1-1.546-.756 1.559 1.559 0 0 1-.56-1.28c0-.708.343-1.265 1.05-1.703.745-.462 1.862-.696 3.32-.696 1.714-.031 3.409.36 4.932 1.142l2.76-2.837-.241-.154a11.132 11.132 0 0 0-3.362-1.344 17.178 17.178 0 0 0-4.052-.493c-2.584 0-4.679.565-6.228 1.68-1.581 1.136-2.383 2.667-2.383 4.552 0 1.467.395 2.628 1.174 3.453.75.8 1.694 1.393 2.743 1.724 1.298.387 2.623.677 3.964.866 1.162.197 2.069.376 2.695.534a3.772 3.772 0 0 1 1.47.7c.35.286.544.72.521 1.169 0 1.589-1.13 2.36-4.096 2.36a12.93 12.93 0 0 1-3.697-.544 10.362 10.362 0 0 1-2.365-1.043l-.01-.006-2.705 2.782.204.16a10.082 10.082 0 0 0 3.532 1.712c1.553.444 3.162.668 4.779.664 2.706 0 4.57-.552 6.155-1.638 1.622-1.112 2.445-2.631 2.445-4.52 0-1.417-.382-2.54-1.136-3.343a6.17 6.17 0 0 0-2.67-1.667z" fill="#000F1F"/>
  </g>
</svg>
